<svg width="24" height="24" viewBox="0 0 24 24" fill="none" xmlns="http://www.w3.org/2000/svg">
<path d="M9.02501 12C9.02501 11.8667 9.04568 11.7417 9.08701 11.625C9.12835 11.5084 9.19935 11.4 9.30001 11.3L13.9 6.70005C14.0833 6.51672 14.3167 6.42505 14.6 6.42505C14.8833 6.42505 15.1167 6.51672 15.3 6.70005C15.4833 6.88338 15.575 7.11672 15.575 7.40005C15.575 7.68338 15.4833 7.91672 15.3 8.10005L11.4 12L15.3 15.9C15.4833 16.0834 15.575 16.3167 15.575 16.6C15.575 16.8834 15.4833 17.1167 15.3 17.3C15.1167 17.4834 14.8833 17.575 14.6 17.575C14.3167 17.575 14.0833 17.4834 13.9 17.3L9.30001 12.7C9.20001 12.6 9.12901 12.4917 9.08701 12.375C9.04501 12.2584 9.02435 12.1334 9.02501 12Z" fill="black"/>
</svg>
